# xmcd CD database file
#
# Track frame offsets:
#	150
#	13912
#	36948
#	50222
#	63209
#	78873
#	92867
#	115778
#	129982
#	148806
#	162165
#	181659
#	198026
#	210057
#	222234
#	236795
#	253471
#	271227
#	293045
#	303082
#	313851
#	333713
#
# Disc length: 4647 seconds
#
# Revision: 0
# Processed by: cddbd v1.5.2PL0 Copyright (c) Steve Scherf et al.
# Submitted via: CDex 1.51
#
DISCID=40122516
DTITLE=Chet Baker - Chet Baker Sings - It Could HappenTo You
DYEAR=1958
DGENRE=Jazz
TTITLE0=Do It The Hard Way
TTITLE1=I'm Old Fashionned
TTITLE2=You'Re Driving Me Crazy
TTITLE3=It Could Happen To You
TTITLE4=My Heart Stood Still
TTITLE5=The More I See You
TTITLE6=Everything Happens To Me
TTITLE7=Dancing On The Ceiling
TTITLE8=How Long Has This Been Going On
TTITLE9=Old Devil Moon
TTITLE10=While My Lady Sleeps
TTITLE11=You Make Me Feel So Young
TTITLE12=Daybreak
TTITLE13=Just Friends
TTITLE14=I Rememder You
TTITLE15=Let's Get Lost
TTITLE16=Long Ago And Far Away
TTITLE17=You Don't Know What Love Is
TTITLE18=Let Me Be Loved
TTITLE19=Like Someone In Love
TTITLE20=My Ideal
TTITLE21=My Buddy
EXTD=YEAR: 1958
EXTT0=
EXTT1=
EXTT2=
EXTT3=
EXTT4=
EXTT5=
EXTT6=
EXTT7=
EXTT8=
EXTT9=
EXTT10=
EXTT11=
EXTT12=
EXTT13=
EXTT14=
EXTT15=
EXTT16=
EXTT17=
EXTT18=
EXTT19=
EXTT20=
EXTT21=
PLAYORDER=
